<?xml version="1.0" standalone="no"?>
<!DOCTYPE svg PUBLIC "-//W3C//DTD SVG 20010904//EN"
 "http://www.w3.org/TR/2001/REC-SVG-20010904/DTD/svg10.dtd">
<svg version="1.0" xmlns="http://www.w3.org/2000/svg"
 width="1200.000000pt" height="460.000000pt" viewBox="0 0 1200.000000 460.000000"
 preserveAspectRatio="xMidYMid meet">

<g transform="translate(0.000000,460.000000) scale(0.100000,-0.100000)"
fill="#000000" stroke="none">
<path d="M9917 4560 c-25 -23 -56 -62 -68 -88 -23 -46 -23 -47 -11 -257 34
-592 -7 -873 -177 -1200 -215 -415 -496 -656 -766 -655 -223 1 -464 159 -681
447 -244 323 -346 656 -384 1253 -12 178 -25 282 -40 311 -19 34 -62 59 -103
59 -93 0 -175 -87 -214 -225 -21 -72 -28 -329 -14 -471 16 -151 53 -353 86
-468 138 -477 459 -930 831 -1173 142 -92 272 -142 430 -163 77 -11 105 -10
198 5 183 28 303 76 465 183 339 224 670 743 765 1202 44 213 51 284 51 540
-1 264 -13 368 -61 520 -45 144 -104 204 -214 217 -45 5 -50 4 -93 -37z"/>
<path d="M1984 4519 c-96 -28 -148 -170 -190 -521 -25 -201 -23 -539 4 -688
75 -414 269 -807 527 -1066 208 -209 436 -332 701 -378 125 -22 218 -20 358 9
209 42 319 88 497 206 134 90 333 291 428 434 235 352 423 940 425 1330 1 163
-12 216 -75 295 -127 161 -295 119 -359 -88 -11 -36 -32 -142 -46 -236 -51
-347 -110 -560 -221 -803 -78 -170 -131 -248 -253 -371 -171 -172 -279 -242
-436 -282 -94 -24 -235 -26 -319 -5 -316 79 -655 457 -795 885 -100 303 -142
676 -106 930 20 141 20 240 2 285 -23 55 -82 82 -142 64z"/>
<path d="M6885 2223 c-78 -41 -92 -72 -130 -303 -29 -172 -75 -320 -126 -406
-43 -73 -130 -168 -168 -184 -44 -18 -78 5 -226 156 l-131 134 -79 0 c-60 0
-89 -5 -122 -21 -49 -24 -120 -105 -179 -206 -76 -131 -123 -173 -190 -173
-83 0 -197 116 -279 284 -69 142 -93 230 -106 391 -15 193 -35 248 -99 275
-37 15 -69 8 -110 -26 -62 -53 -65 -66 -65 -309 0 -210 2 -225 28 -319 123
-443 450 -720 757 -642 111 29 188 85 287 209 30 37 60 67 67 67 8 0 49 -32
92 -72 47 -42 105 -84 144 -102 62 -30 71 -31 190 -31 152 1 203 17 302 99
208 172 345 431 403 760 37 215 2 353 -106 415 -44 25 -111 27 -154 4z"/>
</g>
</svg>
